<svg xmlns="http://www.w3.org/2000/svg" width="192" height="192" viewBox="0 0 192 192">
  <rect width="192" height="192" rx="48" fill="#07101c"/>
  <rect x="12" y="12" width="168" height="168" rx="40" fill="url(#bg)"/>
  <circle cx="56" cy="58" r="28" fill="#69ddff" fill-opacity=".2"/>
  <circle cx="145" cy="50" r="24" fill="#ff7fbc" fill-opacity=".22"/>
  <circle cx="140" cy="142" r="32" fill="#b56dff" fill-opacity=".2"/>
  <path d="M59 50h73c10.493 0 19 8.507 19 19v54c0 10.493-8.507 19-19 19H59c-10.493 0-19-8.507-19-19V69c0-10.493 8.507-19 19-19Z" fill="#0c1729" stroke="#96e5ff" stroke-width="4"/>
  <path d="M69 84h54" stroke="#69ddff" stroke-linecap="round" stroke-width="10"/>
  <path d="M69 106h38" stroke="#b56dff" stroke-linecap="round" stroke-width="10"/>
  <path d="M69 128h50" stroke="#ff7fbc" stroke-linecap="round" stroke-width="10"/>
  <path d="M130 88l18 18-18 18" fill="none" stroke="#f7fbff" stroke-linecap="round" stroke-linejoin="round" stroke-width="10"/>
  <defs>
    <linearGradient id="bg" x1="24" x2="168" y1="18" y2="174" gradientUnits="userSpaceOnUse">
      <stop stop-color="#0d182b"/>
      <stop offset=".52" stop-color="#0a1425"/>
      <stop offset="1" stop-color="#07101c"/>
    </linearGradient>
  </defs>
</svg>
